<svg id="Groupe_4523" data-name="Groupe 4523" xmlns="http://www.w3.org/2000/svg" width="19.667" height="19.625" viewBox="0 0 19.667 19.625">
  <path id="Tracé_5211" data-name="Tracé 5211" d="M644.2,261.638c.36.05.722.087,1.08.152s.7.146,1.046.237a.613.613,0,1,1-.326,1.179,8.643,8.643,0,0,0-3.286-.3,8.376,8.376,0,0,0-3.989,1.465,8.572,8.572,0,0,0-.838,13.5,8.1,8.1,0,0,0,4.452,2.076,8.59,8.59,0,0,0,9.516-10.865.616.616,0,0,1,.607-.852.575.575,0,0,1,.554.452c.135.635.245,1.276.364,1.915.015.081.026.162.039.244v1.227a1.366,1.366,0,0,0-.033.167,9.478,9.478,0,0,1-.753,3.072,9.84,9.84,0,0,1-18.732-2.161c-.061-.358-.1-.719-.149-1.078v-1.227c.063-.435.11-.872.191-1.3a9.823,9.823,0,0,1,7.929-7.746c.365-.06.733-.1,1.1-.151Z" transform="translate(-633.75 -261.638)" fill="#fff"/>
  <path id="Tracé_5212" data-name="Tracé 5212" d="M824.182,265.357a4.693,4.693,0,0,1-.349.446c-.637.646-1.287,1.28-1.922,1.929a.994.994,0,0,1-.658.3q-1.395.128-2.787.277a.447.447,0,0,0-.236.135q-1.7,1.689-3.395,3.386a.639.639,0,0,1-.6.217.583.583,0,0,1-.464-.411.576.576,0,0,1,.132-.6c.152-.164.315-.318.473-.476q1.486-1.484,2.974-2.966a.492.492,0,0,0,.159-.328c.083-.915.181-1.829.268-2.745a.924.924,0,0,1,.289-.6c.657-.644,1.3-1.3,1.959-1.947a4.4,4.4,0,0,1,.434-.334h.307a.768.768,0,0,1,.473.752c.029.63.1,1.258.142,1.887.008.113.047.151.16.159.631.045,1.26.113,1.891.141a.77.77,0,0,1,.753.472Zm-4.084-1.729c-.376.375-.72.715-1.059,1.061a.278.278,0,0,0-.052.156c-.05.457-.1.913-.142,1.37-.027.27-.052.541-.08.833.772-.078,1.52-.154,2.268-.232a.178.178,0,0,0,.1-.048q.507-.508,1.01-1.02s0-.022-.008-.039l-1.279-.1a.619.619,0,0,1-.606-.417,1.715,1.715,0,0,1-.059-.4C820.157,264.426,820.13,264.051,820.1,263.628Z" transform="translate(-804.515 -261.638)" fill="#fff"/>
  <path id="Tracé_5213" data-name="Tracé 5213" d="M707.034,327.827a6.787,6.787,0,1,1-8.219-6.62,6.544,6.544,0,0,1,3.191.086.6.6,0,0,1,.47.58.571.571,0,0,1-.426.589.99.99,0,0,1-.45-.013,5.54,5.54,0,1,0,4.06,6.513,5.377,5.377,0,0,0-.034-2.449,1.822,1.822,0,0,1-.054-.262.61.61,0,0,1,1.191-.236,4.378,4.378,0,0,1,.148.652C706.964,327.052,706.994,327.44,707.034,327.827Z" transform="translate(-690.4 -318.006)" fill="#fff"/>
  <path id="Tracé_5214" data-name="Tracé 5214" d="M757.651,382.587a2.448,2.448,0,1,0,2.371,2.554,1.389,1.389,0,0,1,.018-.248.613.613,0,0,1,1.211.144,3.683,3.683,0,1,1-7.361-.24,3.678,3.678,0,0,1,3.928-3.444.718.718,0,0,1,.537.213.609.609,0,0,1-.416,1.02C757.843,382.592,757.747,382.587,757.651,382.587Z" transform="translate(-747.732 -375.213)" fill="#fff"/>
</svg>
